<svg fill="#000000" width="30px" height="30px" viewBox="0 0 24 24" xmlns="http://www.w3.org/2000/svg"><g id="SVGRepo_bgCarrier" stroke-width="0"></g><g id="SVGRepo_tracerCarrier" stroke-linecap="round" stroke-linejoin="round"></g><g id="SVGRepo_iconCarrier"><path d="M3,22H21a1,1,0,0,0,1-1V17a1,1,0,0,0-1-1H20V11h1a1,1,0,0,0,1-1V7a1,1,0,0,0-.594-.914l-9-4a1,1,0,0,0-.812,0l-9,4A1,1,0,0,0,2,7v3a1,1,0,0,0,1,1H4v5H3a1,1,0,0,0-1,1v4A1,1,0,0,0,3,22ZM4,7.65l8-3.556L20,7.65V9H4ZM18,11v5H15.333V11Zm-4.667,0v5H10.667V11ZM8.667,11v5H6V11ZM4,18H20v2H4ZM14,7a1,1,0,0,1-1,1H11a1,1,0,0,1,0-2h2A1,1,0,0,1,14,7Z"></path></g></svg>